<?xml version="1.0" encoding="UTF-8" standalone="no"?>
<svg
   xmlns:dc="http://purl.org/dc/elements/1.1/"
   xmlns:cc="http://creativecommons.org/ns#"
   xmlns:rdf="http://www.w3.org/1999/02/22-rdf-syntax-ns#"
   xmlns:svg="http://www.w3.org/2000/svg"
   xmlns="http://www.w3.org/2000/svg"
   xmlns:xlink="http://www.w3.org/1999/xlink"
   id="svg8"
   version="1.1"
   viewBox="0 0 210 297"
   height="297mm"
   width="210mm">
  <defs
     id="defs2" />
  <metadata
     id="metadata5">
    <rdf:RDF>
      <cc:Work
         rdf:about="">
        <dc:format>image/svg+xml</dc:format>
        <dc:type
           rdf:resource="http://purl.org/dc/dcmitype/StillImage" />
        <dc:title></dc:title>
      </cc:Work>
    </rdf:RDF>
  </metadata>
  <g
     id="layer1">
    <text
       id="text3701"
       y="83.443451"
       x="100.16369"
       style="font-style:normal;font-variant:normal;font-weight:bold;font-stretch:normal;font-size:16.93333244px;line-height:1.25;font-family:sans-serif;-inkscape-font-specification:'sans-serif, Bold';font-variant-ligatures:normal;font-variant-caps:normal;font-variant-numeric:normal;font-feature-settings:normal;text-align:center;letter-spacing:0px;word-spacing:0px;writing-mode:lr-tb;text-anchor:middle;fill:#000080;fill-opacity:1;stroke:none;stroke-width:0.26458332"
       xml:space="preserve"><tspan
         style="font-style:normal;font-variant:normal;font-weight:bold;font-stretch:normal;font-size:16.93333244px;font-family:sans-serif;-inkscape-font-specification:'sans-serif, Bold';font-variant-ligatures:normal;font-variant-caps:normal;font-variant-numeric:normal;font-feature-settings:normal;text-align:center;writing-mode:lr-tb;text-anchor:middle;fill:#000080;stroke-width:0.26458332"
         y="83.443451"
         x="103.05757"
         id="tspan3699">Giovanni Campos </tspan><tspan
         id="tspan3767"
         style="font-style:normal;font-variant:normal;font-weight:bold;font-stretch:normal;font-size:16.93333244px;font-family:sans-serif;-inkscape-font-specification:'sans-serif, Bold';font-variant-ligatures:normal;font-variant-caps:normal;font-variant-numeric:normal;font-feature-settings:normal;text-align:center;writing-mode:lr-tb;text-anchor:middle;fill:#000080;stroke-width:0.26458332"
         y="104.61012"
         x="100.16369">Alvarado</tspan></text>
    <g
       style="fill:#222b00"
       id="g3725">
      <path
         points="210.10763,143.04355 193.53885,143.05113 193.53885,136.571 210.10763,136.3708 "
         d="m 210.10763,136.3708 v 6.67275 l -16.56878,0.008 V 136.571 Z"
         style="fill:#353564;fill-rule:evenodd;stroke:none;stroke-width:0.47692132;stroke-linejoin:round"
         id="path3727" />
      <path
         points="61.863123,108.03231 61.863123,141.97116 210.10763,143.04355 210.10763,136.3708 "
         d="M 210.10763,136.3708 61.863123,108.03231 v 33.93885 l 148.244507,1.07239 z"
         style="fill:#8686bf;fill-rule:evenodd;stroke:none;stroke-width:0.47692132;stroke-linejoin:round"
         id="path3731" />
      <path
         points="61.863123,141.97116 5.9525471,142.14647 5.9525471,112.66495 61.863123,108.03231 "
         d="m 61.863123,108.03231 v 33.93885 l -55.9105759,0.17531 v -29.48152 z"
         style="fill:#d7d7ff;fill-rule:evenodd;stroke:none;stroke-width:0.47692132;stroke-linejoin:round"
         id="path3733" />
      <path
         points="61.863123,141.97116 5.9525471,142.14647 193.53885,143.05113 210.10763,143.04355 "
         d="M 210.10763,143.04355 61.863123,141.97116 5.9525471,142.14647 193.53885,143.05113 Z"
         style="fill:#afafde;fill-rule:evenodd;stroke:none;stroke-width:0.47692132;stroke-linejoin:round"
         id="path3735" />
      <path
         points="61.863123,108.03231 5.9525471,112.66495 193.53885,136.571 210.10763,136.3708 "
         d="M 210.10763,136.3708 61.863123,108.03231 5.9525471,112.66495 193.53885,136.571 Z"
         style="fill:#4d4d9f;fill-rule:evenodd;stroke:none;stroke-width:0.47692132;stroke-linejoin:round"
         id="path3729" />
      <path
         points="5.9525471,112.66495 5.9525471,142.14647 193.53885,143.05113 193.53885,136.571 "
         d="M 193.53885,136.571 5.9525471,112.66495 v 29.48152 l 187.5863029,0.90466 z"
         style="fill:#e9e9ff;fill-rule:evenodd;stroke:none;stroke-width:0.47692132;stroke-linejoin:round"
         id="path3737" />
    </g>
    <path
       id="path3769"
       d="M 1.209894,77.400452 94.526919,30.266847"
       style="display:inline;fill:#800000;fill-rule:evenodd;stroke:#000000;stroke-width:0.35348779px;stroke-linecap:butt;stroke-linejoin:miter;stroke-opacity:1" />
    <path
       id="path3771"
       d="m 188.98809,61.89881 0.37798,0.377975"
       style="fill:none;fill-rule:evenodd;stroke:#000000;stroke-width:0.26458332px;stroke-linecap:butt;stroke-linejoin:miter;stroke-opacity:1" />
    <path
       id="path3773"
       d="M 208.60998,71.608153 94.526919,30.266847"
       style="fill:#000080;fill-rule:evenodd;stroke:#000000;stroke-width:0.45785829px;stroke-linecap:butt;stroke-linejoin:miter;stroke-opacity:1" />
    <g
       style="opacity:0.02000002;fill:#a02c2c;fill-opacity:0"
       id="g3775">
      <path
         points="89.202381,76.376369 37.511142,84.012743 37.511142,64.824846 89.202381,54.717263 "
         d="M 89.202381,54.717263 V 76.376369 L 37.511142,84.012743 V 64.824846 Z"
         style="fill:#353564;fill-rule:evenodd;stroke:none;stroke-linejoin:round"
         id="path3777" />
      <path
         points="52.538689,34.053742 52.538689,60.764883 89.202381,76.376369 89.202381,54.717263 "
         d="M 89.202381,54.717263 52.538689,34.053742 v 26.711141 l 36.663692,15.611486 z"
         style="fill:#8686bf;fill-rule:evenodd;stroke:none;stroke-linejoin:round"
         id="path3781" />
      <path
         points="52.538689,60.764883 -4.5319268,72.078052 -4.5319268,49.027967 52.538689,34.053742 "
         d="M 52.538689,34.053742 V 60.764883 L -4.5319268,72.078052 V 49.027967 Z"
         style="fill:#d7d7ff;fill-rule:evenodd;stroke:none;stroke-linejoin:round"
         id="path3783" />
      <path
         points="52.538689,60.764883 -4.5319268,72.078052 37.511142,84.012743 89.202381,76.376369 "
         d="M 89.202381,76.376369 52.538689,60.764883 -4.5319268,72.078052 37.511142,84.012743 Z"
         style="fill:#afafde;fill-rule:evenodd;stroke:none;stroke-linejoin:round"
         id="path3785" />
      <path
         points="52.538689,34.053742 -4.5319268,49.027967 37.511142,64.824846 89.202381,54.717263 "
         d="M 89.202381,54.717263 52.538689,34.053742 -4.5319268,49.027967 37.511142,64.824846 Z"
         style="fill:#4d4d9f;fill-rule:evenodd;stroke:none;stroke-linejoin:round"
         id="path3779" />
      <path
         points="-4.5319268,49.027967 -4.5319268,72.078052 37.511142,84.012743 37.511142,64.824846 "
         d="M 37.511142,64.824846 -4.5319268,49.027967 V 72.078052 L 37.511142,84.012743 Z"
         style="fill:#e9e9ff;fill-rule:evenodd;stroke:none;stroke-linejoin:round"
         id="path3787" />
    </g>
    <rect
       y="21.077381"
       x="17.386906"
       height="16.094622"
       width="96.195084"
       id="rect3789"
       style="opacity:0.02000002;fill:#a02c2c;fill-opacity:0;stroke-width:0.26458332" />
    <rect
       y="21.077381"
       x="30.616072"
       height="30.616072"
       width="81.64286"
       id="rect3791"
       style="opacity:0.02000002;fill:#a02c2c;fill-opacity:0;stroke-width:0.26458332" />
    <g
       style="opacity:0.02000002;fill:#a02c2c;fill-opacity:0"
       id="g3793">
      <path
         points="112.25893,67.325914 65.116236,74.84921 65.116236,60.764621 112.25893,51.693451 "
         d="M 112.25893,51.693451 V 67.325914 L 65.116236,74.84921 V 60.764621 Z"
         style="fill:#353564;fill-rule:evenodd;stroke:none;stroke-linejoin:round"
         id="path3795" />
      <path
         points="30.616073,-4.0704481 30.616073,21.077383 112.25893,67.325914 112.25893,51.693451 "
         d="M 112.25893,51.693451 30.616073,-4.0704481 V 21.077383 l 81.642857,46.248531 z"
         style="fill:#8686bf;fill-rule:evenodd;stroke:none;stroke-linejoin:round"
         id="path3799" />
      <path
         points="30.616073,21.077383 -28.645618,39.440128 -28.645618,18.070325 30.616073,-4.0704481 "
         d="M 30.616073,-4.0704481 V 21.077383 L -28.645618,39.440128 V 18.070325 Z"
         style="fill:#d7d7ff;fill-rule:evenodd;stroke:none;stroke-linejoin:round"
         id="path3801" />
      <path
         points="30.616073,21.077383 -28.645618,39.440128 65.116236,74.84921 112.25893,67.325914 "
         d="M 112.25893,67.325914 30.616073,21.077383 -28.645618,39.440128 65.116236,74.84921 Z"
         style="fill:#afafde;fill-rule:evenodd;stroke:none;stroke-linejoin:round"
         id="path3803" />
      <path
         points="30.616073,-4.0704481 -28.645618,18.070325 65.116236,60.764621 112.25893,51.693451 "
         d="M 112.25893,51.693451 30.616073,-4.0704481 -28.645618,18.070325 65.116236,60.764621 Z"
         style="fill:#4d4d9f;fill-rule:evenodd;stroke:none;stroke-linejoin:round"
         id="path3797" />
      <path
         points="-28.645618,18.070325 -28.645618,39.440128 65.116236,74.84921 65.116236,60.764621 "
         d="M 65.116236,60.764621 -28.645618,18.070325 V 39.440128 L 65.116236,74.84921 Z"
         style="fill:#e9e9ff;fill-rule:evenodd;stroke:none;stroke-linejoin:round"
         id="path3805" />
    </g>
    <g
       style="opacity:0.02000002;fill:#a02c2c;fill-opacity:0"
       id="g3807">
      <path
         points="72.193453,62.573018 17.731753,72.65655 17.731753,50.428118 72.193453,37.172005 "
         d="M 72.193453,37.172005 V 62.573018 L 17.731753,72.65655 V 50.428118 Z"
         style="fill:#353564;fill-rule:evenodd;stroke:none;stroke-linejoin:round"
         id="path3809" />
      <path
         points="17.386905,3.7790682 17.386905,37.172002 72.193453,62.573018 72.193453,37.172005 "
         d="M 72.193453,37.172005 17.386905,3.7790682 V 37.172002 l 54.806548,25.401016 z"
         style="fill:#8686bf;fill-rule:evenodd;stroke:none;stroke-linejoin:round"
         id="path3813" />
      <path
         points="17.386905,37.172002 -42.844096,53.939953 -42.844096,25.822719 17.386905,3.7790682 "
         d="M 17.386905,3.7790682 V 37.172002 L -42.844096,53.939953 V 25.822719 Z"
         style="fill:#d7d7ff;fill-rule:evenodd;stroke:none;stroke-linejoin:round"
         id="path3815" />
      <path
         points="17.386905,37.172002 -42.844096,53.939953 17.731753,72.65655 72.193453,62.573018 "
         d="M 72.193453,62.573018 17.386905,37.172002 -42.844096,53.939953 17.731753,72.65655 Z"
         style="fill:#afafde;fill-rule:evenodd;stroke:none;stroke-linejoin:round"
         id="path3817" />
      <path
         points="17.386905,3.7790682 -42.844096,25.822719 17.731753,50.428118 72.193453,37.172005 "
         d="M 72.193453,37.172005 17.386905,3.7790682 -42.844096,25.822719 17.731753,50.428118 Z"
         style="fill:#4d4d9f;fill-rule:evenodd;stroke:none;stroke-linejoin:round"
         id="path3811" />
      <path
         points="-42.844096,25.822719 -42.844096,53.939953 17.731753,72.65655 17.731753,50.428118 "
         d="M 17.731753,50.428118 -42.844096,25.822719 V 53.939953 L 17.731753,72.65655 Z"
         style="fill:#e9e9ff;fill-rule:evenodd;stroke:none;stroke-linejoin:round"
         id="path3819" />
    </g>
    <path
       d="m 92.012925,16.602636 c 4.369501,-0.907119 8.609115,-2.31398 12.856225,-3.663818 7.24479,-2.375444 14.39158,-5.0376972 21.63568,-7.4144985 2.86679,-0.973374 5.78671,-1.7470916 8.8099,-1.9684577 1.94535,-0.075009 3.89285,-0.023352 5.83895,-0.00962 1.29609,0.034092 2.65274,-0.1860425 3.40362,1.0722772 0.3274,0.8567488 -0.0338,1.7235474 -0.28534,2.5512209 -0.22432,0.7834781 -0.42864,1.5764071 -0.72195,2.3375908 -0.33546,0.7402173 -0.29927,1.4815243 -0.1172,2.2517333 0.26709,0.765479 0.91644,1.269424 1.47942,1.813197 0.70099,0.741281 1.66366,1.1563 2.55628,1.621614 1.16027,0.750731 2.43564,1.163542 3.78394,1.406944 0.69653,0.176609 1.3974,0.329294 2.10672,0.443392 0,0 -4.59519,3.214893 -4.59519,3.214893 v 0 c -0.69938,-0.139656 -1.39116,-0.310335 -2.0858,-0.471574 -1.37682,-0.304124 -2.67561,-0.789659 -3.884,-1.527834 -0.94402,-0.486496 -1.92239,-0.956582 -2.65386,-1.749276 -0.64755,-0.615821 -1.34401,-1.211429 -1.64753,-2.082654 -0.21697,-0.855061 -0.34779,-1.70265 -0.0454,-2.558617 0.30487,-0.748021 0.5634,-1.511639 0.75561,-2.2984836 0.19989,-0.6877849 0.5684,-1.4139331 0.48234,-2.1370796 -0.47031,-0.8488933 -2.22877,-0.5634952 -3.01599,-0.6357233 -1.9366,-0.022691 -3.87626,-0.058908 -5.81087,0.050747 -2.9176,0.2575414 -5.74517,1.0065348 -8.52619,1.9123771 -7.22658,2.3277294 -14.3541,4.9470254 -21.55533,7.3507434 -4.362783,1.428855 -8.728109,2.860709 -13.209621,3.877451 0,0 4.445566,-3.386548 4.445566,-3.386548 z"
       id="path3821"
       style="opacity:0.02000002;fill:#0000ff;fill-opacity:0;stroke-width:0.26458332" />
    <path
       d="m 146.35806,12.928041 c 1.16263,1.529881 2.40032,3.006814 3.71428,4.409201 0.77646,0.720544 1.36591,1.617253 2.1301,2.343881 1.07334,1.213151 2.28218,2.305408 3.50291,3.368984 1.62919,1.264942 3.33219,2.441746 5.10274,3.500738 0.9411,0.614312 1.88513,1.227841 2.85321,1.798753 0.82972,0.559197 1.68283,1.090272 2.49056,1.680539 0.1195,0.07926 0.23901,0.158517 0.35851,0.237775 0,0 -4.72856,3.020693 -4.72856,3.020693 v 0 c -0.12055,-0.08442 -0.2411,-0.168839 -0.36164,-0.25326 -0.80504,-0.572195 -1.63578,-1.110003 -2.4669,-1.643319 -0.94919,-0.593555 -1.89835,-1.187831 -2.81813,-1.826519 -1.75838,-1.12282 -3.4749,-2.317025 -5.12737,-3.590416 -1.23887,-1.067976 -2.45709,-2.168327 -3.58008,-3.35826 -0.75609,-0.747576 -1.35472,-1.640443 -2.10491,-2.397585 -1.2999,-1.450889 -2.53572,-2.957929 -3.78596,-4.451372 0,0 4.82124,-2.839833 4.82124,-2.839833 z"
       id="path3823"
       style="opacity:0.02000002;fill:#0000ff;fill-opacity:0;stroke-width:0.26458332" />
    <path
       d="m 161.5429,31.347844 c -0.0834,-2.187316 -0.18893,-4.373886 -0.26136,-6.56186 -0.0498,-1.703116 -0.0861,-3.406657 -0.10957,-5.110341 -0.008,-0.999292 -0.007,-1.998582 -0.007,-2.997888 -0.005,-1.001654 0.005,-2.003269 0.007,-3.004904 -0.0194,-0.96416 -0.0422,-1.917101 0.17419,-2.860734 0.48697,-1.5301509 1.24856,-2.9504284 1.99234,-4.3670306 1.18488,-1.9598642 0.81806,-1.4992797 5.36358,-3.1770179 0.27158,-0.1002356 0.3541,0.4616262 0.48852,0.7180013 0.65235,1.2441777 1.17645,3.1185107 1.64704,4.4426976 1.3463,4.2041986 3.30316,8.1662686 5.51982,11.9715306 1.03107,1.362857 1.85117,3.414775 3.29578,4.411456 1.80046,-0.614082 2.30602,-0.797834 -4.52882,2.430931 -0.12437,0.05876 0.16123,-0.228891 0.2004,-0.360754 0.26737,-0.899961 0.15269,-1.951908 0.13814,-2.870548 -0.10168,-4.008714 -0.12204,-8.018829 -0.16575,-12.028442 -0.008,-0.708283 -0.0295,-1.41653 -0.0252,-2.12485 0.004,-0.6740562 -0.0126,-2.0926126 0.24621,-2.8313901 0.0681,-0.1944669 0.18092,-0.4151334 0.37113,-0.4943692 1.85415,-0.7723664 3.67777,-1.8160381 5.67552,-2.0244271 0.5504,-0.057413 0.66367,0.885707 0.9955,1.3285605 3.30436,5.1820829 5.97443,10.7375289 8.71284,16.2308059 0.0545,0.10567 2.25388,4.378804 2.44416,4.72662 0.29015,0.530365 0.55101,1.083426 0.91626,1.565164 0.20596,0.271647 0.4414,0.599789 0.77571,0.666459 0.22911,0.04569 0.80327,-0.458084 0.57791,-0.396513 -1.31412,0.359034 -2.58363,0.86496 -3.87545,1.29744 0.31576,-0.824831 0.65614,-1.640649 0.94726,-2.474492 0.70122,-2.008462 1.44051,-4.593896 2.07759,-6.60482 1.0003,-3.157384 2.10166,-6.269671 3.25857,-9.372171 0.45983,-1.200812 0.99945,-2.6681008 1.53145,-3.8646551 0.13862,-0.3117855 0.69419,-1.6181892 1.13793,-1.8833253 1.78347,-1.0656189 3.55901,-2.1957508 5.50594,-2.9208526 0.34131,-0.1271145 0.64404,0.3403084 0.96606,0.5104628 0.37776,0.3283471 0.78398,0.6265722 1.13329,0.9850416 0.84796,0.8701886 2.33122,2.7651395 3.01308,3.6684621 1.36647,1.8102988 2.21069,3.0103735 3.39573,4.9691485 0.54895,0.907382 1.04861,1.843688 1.57292,2.765532 2.74276,4.810927 4.63973,10.017863 6.17649,15.318764 0.48385,1.680175 0.79596,3.400364 1.13098,5.113872 0.0616,0.315288 0.1244,0.630359 0.18831,0.945195 0.0297,0.146065 0.2247,0.368953 0.0924,0.437488 -1.66633,0.862872 -3.45499,1.465551 -5.18249,2.198325 -1.77184,-4.3917 -3.69811,-8.730207 -6.01092,-12.867433 -0.69558,-1.244282 -1.4428,-2.458982 -2.1642,-3.688472 -3.34295,-5.46406 -7.20229,-10.60931 -11.40755,-15.4383814 -2.0127,-2.3112701 -3.11368,-3.4101481 -5.17146,-5.5514306 -1.4635,-1.27222072 -2.89129,-3.05156315 -4.57594,-4.0784915 -0.26541,-0.1617889 -0.55536,-0.3157062 -0.86428,-0.3501353 -0.24447,-0.027246 -0.92946,0.298167 -0.71718,0.1738839 1.30895,-0.7663457 2.68654,-1.4088865 4.02981,-2.1133296 -0.29275,0.3154622 -0.62187,0.6007177 -0.87825,0.9463865 -1.45255,1.9583772 -2.35573,4.4113091 -3.18067,6.6675364 -1.14124,3.1212803 -1.523,4.5516377 -2.50116,7.7785626 -1.60849,5.591638 -2.90619,11.27528 -3.77662,17.029733 -0.49469,3.270446 -0.56823,4.373184 -0.89653,7.607414 -0.42211,4.723106 -0.54767,9.465743 -0.52304,14.205582 0.006,0.400859 0.0101,0.801735 0.0169,1.202579 0.0252,1.49852 0.007,0.41125 0.0429,1.622046 0.003,0.09936 0.0938,0.253757 0.005,0.298162 -5.454,2.723364 -4.45407,3.961299 -5.69102,1.13665 -3.99607,-8.655098 -8.33839,-17.146005 -12.58229,-25.681104 -7.782,-15.301697 -14.6358,-31.0392474 -21.38136,-46.81656 -0.79048,-1.877045 -1.59351,-3.748856 -2.37145,-5.631134 -0.78768,-1.905831 -2.00335,-4.83457 -2.66442,-6.946974 -0.13424,-0.428919 -0.64144,-1.02511 -0.29796,-1.314958 5.03202,-4.246343 4.33005,-4.070086 6.40114,-1.180423 0.61065,1.020591 1.23213,2.034775 1.83194,3.061774 0.88164,1.509541 1.72796,3.03956 2.61224,4.547554 2.8877,4.924475 5.32598,8.971303 8.41778,13.823798 4.02868,6.3229012 5.24583,8.0030943 9.41294,14.1032566 5.54329,7.7321629 10.97922,15.5899064 17.2231,22.7845234 1.21553,1.240041 0.61824,0.784329 1.69747,1.482705 0,0 -4.69948,2.969043 -4.69948,2.969043 v 0 c -1.01791,-0.888055 -0.46174,-0.345649 -1.60164,-1.693092 -5.81284,-7.528216 -11.16639,-15.40053 -16.5556,-23.2329783 -6.16082,-9.1848417 -12.19781,-18.4503747 -18.18987,-27.7461507 -0.94517,-1.466299 -1.84447,-2.962062 -2.8019,-4.420395 -0.64424,-0.981305 -1.33479,-1.931419 -2.00219,-2.897127 -1.93908,-2.111732 -2.57424,-2.006481 3.11079,-4.161525 0.41731,-0.158192 -0.0204,0.89966 0.0677,1.337167 0.19314,0.958919 0.47482,1.899214 0.77185,2.831198 1.09181,3.425655 2.40704,6.642245 3.70663,10.004736 2.42484,6.033077 3.50773,8.839819 6.1734,14.9675513 4.68965,10.7803806 9.8349,21.3549847 15.17876,31.8242277 4.3899,8.450377 8.88899,16.842479 13.32973,25.266023 1.4316,2.651898 0.98274,0.991016 -4.14975,4.069893 -0.0745,0.04472 0.0724,-0.161478 0.0807,-0.248021 0.022,-0.228235 0.007,-0.458525 0.009,-0.6878 0.0238,-2.137294 -0.009,0.304951 0.0266,-2.196581 0.0928,-4.801622 0.28634,-9.602867 0.76258,-14.383912 0.36089,-3.33235 0.42855,-4.295269 0.94908,-7.669278 0.88976,-5.767268 2.16831,-11.468207 3.74816,-17.084857 1.03319,-3.5434568 1.22404,-4.3334177 2.36991,-7.7557017 0.90902,-2.7149226 1.86101,-5.50413364 3.64372,-7.7891101 1.86836,-1.0719087 3.66777,-2.2741449 5.60509,-3.2157263 0.49705,-0.2415768 1.42693,0.3354708 1.74293,0.5655863 1.65045,1.2019087 2.92024,2.8868378 4.38525,4.28132188 6.01435,6.63152502 11.80397,13.52140192 16.53605,21.14440392 0.73716,1.228462 1.49718,2.443495 2.2115,3.685384 2.35786,4.099339 4.31479,8.399305 6.40521,12.635843 -1.54426,1.065736 -3.01718,2.243079 -4.63278,3.197206 -0.12924,0.07633 -0.003,-0.300646 -0.0192,-0.449876 -0.035,-0.324683 -0.0861,-0.647459 -0.134,-0.970492 -0.25519,-1.720903 -0.55996,-3.43545 -1.00325,-5.119415 -1.45089,-5.288388 -3.28266,-10.482457 -6.00855,-15.264931 -0.52151,-0.911719 -1.01537,-1.839822 -1.56453,-2.735157 -1.12458,-1.833467 -2.10469,-3.206486 -3.42757,-4.887484 -0.78939,-1.0030834 -2.09899,-2.588594 -3.08557,-3.488794 -0.3379,-0.308324 -0.73497,-0.5447901 -1.10245,-0.8171852 -2.2957,-0.6274139 -1.23974,-0.1292532 3.25868,-2.802387 0.25642,-0.1523759 -0.49735,0.3467587 -0.67771,0.5843338 -0.27022,0.3559488 -0.45552,0.7699447 -0.65427,1.1702148 -0.60191,1.2122002 -1.16772,2.671232 -1.67288,3.9046806 -1.01617,2.578515 -1.29143,3.19888 -2.22613,5.920163 -1.42141,4.138251 -2.52009,8.373455 -3.87996,12.530948 -1.84167,1.432148 -3.57859,3.010258 -5.52501,4.296439 -0.66631,0.440302 -1.41793,-0.62957 -1.61968,-0.936408 -0.33651,-0.511775 -0.58297,-1.077581 -0.85845,-1.624631 -0.79915,-1.586987 -1.51686,-3.214252 -2.34612,-4.786469 -2.6767,-5.476247 -5.34525,-11.009617 -8.85026,-16.0151639 -2.17602,-2.5027863 -1.19111,-0.609732 3.22462,-4.1293988 0.16281,-0.1297662 -0.48504,-0.039418 -0.61179,0.1257445 -0.22722,0.2960796 -0.2541,0.706832 -0.3103,1.0757948 -0.16261,1.0677646 -0.11012,2.8139913 -0.10783,3.8350459 0.0309,3.9848355 0.0921,7.9701005 0.29675,11.9504435 0.0899,2.32774 0.64181,9.449471 -5.46662,6.302396 -1.42322,-1.275321 -2.20003,-3.124155 -3.24345,-4.688464 -2.14673,-3.874202 -4.11764,-7.856171 -5.54379,-12.058567 -0.26555,-0.687797 -0.96905,-2.5362272 -1.29832,-3.3008066 -0.13332,-0.3095755 -0.26734,-0.6203365 -0.43398,-0.9133261 -0.0534,-0.093852 -0.30923,-0.1758608 -0.22045,-0.2373137 1.4613,-1.011564 3.01447,-1.8853738 4.55845,-2.7655978 0.12812,-0.07304 -0.19425,0.2219558 -0.29138,0.3329334 -0.78014,1.3533623 -1.51122,2.7477246 -2.01552,4.230057 -0.28335,0.8955569 -0.29144,1.8032998 -0.2587,2.7377368 0.002,0.999755 0.0116,1.999496 0.005,2.999267 -10e-4,1.000762 -0.004,2.001501 -0.008,3.002262 -0.0104,1.711571 -0.0117,3.423329 0.0306,5.134557 0.0579,2.179766 0.13581,4.360909 0.35759,6.531263 0,0 -4.99752,2.546366 -4.99752,2.546366 z"
       id="path3825"
       style="opacity:0.02000002;fill:#0000ff;fill-opacity:0;stroke-width:0.26458332" />
    <path
       d="m 129.67565,-1.2209309 c 0.92459,1.28912804 1.95894,2.4926702 3.02466,3.6657831 0.97247,1.1637437 2.20632,2.0490091 3.35022,3.0272613 0.59483,0.5862378 1.1649,1.1980487 1.75777,1.7884925 1.15529,1.2516446 2.54236,2.3034847 3.9405,3.271059 2.0426,1.342083 4.12947,2.619343 6.28962,3.763298 3.97756,2.129017 8.22456,3.676441 12.47286,5.163521 5.24315,1.906504 10.56693,3.57394 15.84736,5.369705 2.89436,1.009075 5.8222,1.908054 8.70009,2.963959 0.96921,0.454832 1.97214,0.837784 2.92445,1.327287 0.0998,0.03127 0.19954,0.06254 0.29931,0.0938 0,0 -4.66865,3.137522 -4.66865,3.137522 v 0 c -0.10705,-0.04801 -0.2141,-0.09602 -0.32115,-0.144031 -0.93842,-0.451541 -1.8843,-0.88791 -2.83021,-1.323301 -2.81527,-1.102979 -5.69753,-2.012479 -8.5352,-3.05517 -5.24855,-1.833226 -10.54166,-3.538441 -15.77336,-5.421675 -4.31636,-1.492973 -8.65461,-2.990538 -12.71873,-5.098102 -2.17875,-1.152533 -4.26552,-2.466411 -6.32617,-3.817398 -1.4339,-0.992541 -2.87269,-2.036193 -4.08506,-3.295338 -0.58717,-0.5779319 -1.13887,-1.1881706 -1.72635,-1.7638817 -1.14443,-1.00364 -2.34451,-1.9529348 -3.34301,-3.1105229 -1.07003,-1.1813876 -2.10024,-2.3943714 -3.0877,-3.6460068 0,0 4.80875,-2.8962645 4.80875,-2.8962645 z"
       id="path3827"
       style="opacity:0.02000002;fill:#0000ff;fill-opacity:0;stroke-width:0.26458332" />
    <path
       d="m 174.91992,31.588606 c -4.38442,-1.993056 -8.90526,-3.644717 -13.44836,-5.235238 -7.02163,-2.322455 -14.18134,-4.199355 -21.34717,-6.016884 -4.78867,-1.272971 -9.61513,-2.417011 -14.51171,-3.193668 -2.48727,-0.39451 -5.04292,-0.689037 -7.54238,-0.997705 -5.5493,-0.572497 -11.10778,-1.063993 -16.67109,-1.479587 -0.54501,-0.03512 -1.09002,-0.07025 -1.635031,-0.105376 -0.14583,0.09073 -0.59519,0.340224 -0.437491,0.272187 2.007812,-0.866245 3.817952,-2.440296 5.992672,-2.6689 1.83039,-0.192408 3.53412,1.032591 5.31944,1.479786 6.5551,1.641952 13.23748,3.001328 19.83803,4.414848 20.86665,4.341833 41.87189,7.970578 62.91535,11.334464 0,0 -3.52486,2.471338 -3.52486,2.471338 v 0 c -20.92951,-3.77698 -41.86497,-7.523952 -62.7662,-11.455042 -5.95951,-1.145215 -14.35775,-2.740964 -20.49363,-3.980832 -1.94022,-0.392056 -4.83619,0.501639 -5.81144,-1.220871 -2.600191,-4.592541 3.74926,-3.808117 5.00195,-3.682603 5.50239,0.496036 11.00132,1.037591 16.49368,1.634095 3.80983,0.494584 7.61817,0.977674 11.3925,1.706446 2.48502,0.479824 4.69602,1.012388 7.15005,1.623263 1.18652,0.295358 2.36896,0.606897 3.55344,0.910346 7.17544,1.836506 14.34495,3.724181 21.38139,6.046659 3.10663,1.069495 6.21613,2.135144 9.2902,3.29624 0.95802,0.361852 2.56634,1.023588 3.60298,1.39944 0.29746,0.107846 0.60109,0.197815 0.90163,0.296724 0,0 -4.64395,3.15087 -4.64395,3.15087 z"
       id="path3829"
       style="opacity:0.02000002;fill:#0000ff;fill-opacity:0;stroke-width:0.26458332" />
    <use
       transform="translate(-125.99183,7.2828095)"
       height="100%"
       width="100%"
       y="0"
       x="0"
       xlink:href="#path3829"
       id="use3831" />
    <use
       transform="translate(-145.08091,2.1724047)"
       height="100%"
       width="100%"
       y="0"
       x="0"
       xlink:href="#path3829"
       id="use3833" />
    <use
       transform="translate(-139.37018,12.406251)"
       height="100%"
       width="100%"
       y="0"
       x="0"
       xlink:href="#path3829"
       id="use3835" />
    <use
       transform="translate(-131.40772,6.9693158)"
       height="100%"
       width="100%"
       y="0"
       x="0"
       xlink:href="#path3829"
       id="use3837" />
    <use
       transform="translate(-138.48421,16.234347)"
       height="100%"
       width="100%"
       y="0"
       x="0"
       xlink:href="#path3829"
       id="use3839" />
    <use
       transform="translate(-142.39745,10.083326)"
       height="100%"
       width="100%"
       y="0"
       x="0"
       xlink:href="#path3829"
       id="use3841" />
    <use
       transform="translate(-124.31382,7.3645342)"
       height="100%"
       width="100%"
       y="0"
       x="0"
       xlink:href="#path3829"
       id="use3843" />
    <use
       transform="translate(-121.40989,10.5675)"
       height="100%"
       width="100%"
       y="0"
       x="0"
       xlink:href="#path3829"
       id="use3845" />
    <use
       transform="translate(-131.09323,19.546309)"
       height="100%"
       width="100%"
       y="0"
       x="0"
       xlink:href="#path3829"
       id="use3847" />
    <use
       transform="translate(-138.9293,3.3864232)"
       height="100%"
       width="100%"
       y="0"
       x="0"
       xlink:href="#path3829"
       id="use3849" />
    <use
       transform="translate(-116.23588,15.752091)"
       height="100%"
       width="100%"
       y="0"
       x="0"
       xlink:href="#path3829"
       id="use3851" />
    <use
       transform="translate(-131.45539,13.648407)"
       height="100%"
       width="100%"
       y="0"
       x="0"
       xlink:href="#path3829"
       id="use3853" />
    <use
       transform="translate(-138.30049,6.5870937)"
       height="100%"
       width="100%"
       y="0"
       x="0"
       xlink:href="#path3829"
       id="use3855" />
    <use
       transform="translate(-126.06425,17.13383)"
       height="100%"
       width="100%"
       y="0"
       x="0"
       xlink:href="#path3829"
       id="use3857" />
    <use
       transform="translate(-129.73931,2.7836824)"
       height="100%"
       width="100%"
       y="0"
       x="0"
       xlink:href="#path3829"
       id="use3859" />
    <use
       transform="translate(-118.54456,6.321991)"
       height="100%"
       width="100%"
       y="0"
       x="0"
       xlink:href="#path3829"
       id="use3861" />
    <use
       transform="translate(-117.41195,4.9983115)"
       height="100%"
       width="100%"
       y="0"
       x="0"
       xlink:href="#path3829"
       id="use3863" />
    <use
       transform="translate(-126.07582,0.10816819)"
       height="100%"
       width="100%"
       y="0"
       x="0"
       xlink:href="#path3829"
       id="use3865" />
    <use
       transform="translate(-123.43968,5.7346328)"
       height="100%"
       width="100%"
       y="0"
       x="0"
       xlink:href="#path3829"
       id="use3867" />
    <use
       transform="translate(-120.88754,7.2514236)"
       height="100%"
       width="100%"
       y="0"
       x="0"
       xlink:href="#path3829"
       id="use3869" />
    <use
       transform="translate(-119.10413,-4.0997971)"
       height="100%"
       width="100%"
       y="0"
       x="0"
       xlink:href="#path3829"
       id="use3871" />
    <use
       transform="translate(-102.4603,0.72548192)"
       height="100%"
       width="100%"
       y="0"
       x="0"
       xlink:href="#path3829"
       id="use3873" />
    <use
       transform="translate(-107.02775,-2.7344948)"
       height="100%"
       width="100%"
       y="0"
       x="0"
       xlink:href="#path3829"
       id="use3875" />
    <use
       transform="translate(-93.593369,-0.15580788)"
       height="100%"
       width="100%"
       y="0"
       x="0"
       xlink:href="#path3829"
       id="use3877" />
    <use
       transform="translate(-101.71426,-8.072662)"
       height="100%"
       width="100%"
       y="0"
       x="0"
       xlink:href="#path3829"
       id="use3879" />
    <use
       transform="translate(-104.29511,-8.3931168)"
       height="100%"
       width="100%"
       y="0"
       x="0"
       xlink:href="#path3829"
       id="use3881" />
    <use
       transform="translate(-109.38571,12.544322)"
       height="100%"
       width="100%"
       y="0"
       x="0"
       xlink:href="#path3829"
       id="use3883" />
    <use
       transform="translate(-100.7992,-4.6918765)"
       height="100%"
       width="100%"
       y="0"
       x="0"
       xlink:href="#path3829"
       id="use3885" />
    <use
       transform="translate(-111.17845,-0.69213214)"
       height="100%"
       width="100%"
       y="0"
       x="0"
       xlink:href="#path3829"
       id="use3887" />
    <use
       transform="translate(-88.037285,1.1473577)"
       height="100%"
       width="100%"
       y="0"
       x="0"
       xlink:href="#path3829"
       id="use3889" />
    <use
       transform="translate(-98.097089,-8.6509479)"
       height="100%"
       width="100%"
       y="0"
       x="0"
       xlink:href="#path3829"
       id="use3891" />
    <use
       transform="translate(-96.816152,12.151764)"
       height="100%"
       width="100%"
       y="0"
       x="0"
       xlink:href="#path3829"
       id="use3893" />
    <use
       transform="translate(-88.128936,1.7857643)"
       height="100%"
       width="100%"
       y="0"
       x="0"
       xlink:href="#path3829"
       id="use3895" />
    <use
       transform="translate(-82.648091,8.8246441)"
       height="100%"
       width="100%"
       y="0"
       x="0"
       xlink:href="#path3829"
       id="use3897" />
    <use
       transform="translate(-90.611745,-3.5851489)"
       height="100%"
       width="100%"
       y="0"
       x="0"
       xlink:href="#path3829"
       id="use3899" />
    <use
       transform="translate(-83.329114,3.3845283)"
       height="100%"
       width="100%"
       y="0"
       x="0"
       xlink:href="#path3829"
       id="use3901" />
    <use
       transform="translate(-72.142309,-6.9781775)"
       height="100%"
       width="100%"
       y="0"
       x="0"
       xlink:href="#path3829"
       id="use3903" />
    <use
       transform="translate(-65.837708,-12.893315)"
       height="100%"
       width="100%"
       y="0"
       x="0"
       xlink:href="#path3829"
       id="use3905" />
    <use
       transform="translate(-77.370401,-4.8886633)"
       height="100%"
       width="100%"
       y="0"
       x="0"
       xlink:href="#path3829"
       id="use3907" />
    <use
       transform="translate(-73.308171,-8.6341544)"
       height="100%"
       width="100%"
       y="0"
       x="0"
       xlink:href="#path3829"
       id="use3909" />
    <use
       transform="translate(-85.918925,1.6075882)"
       height="100%"
       width="100%"
       y="0"
       x="0"
       xlink:href="#path3829"
       id="use3911" />
    <use
       transform="translate(-67.578487,-2.7542165)"
       height="100%"
       width="100%"
       y="0"
       x="0"
       xlink:href="#path3829"
       id="use3913" />
    <use
       transform="translate(-90.113738,11.218892)"
       height="100%"
       width="100%"
       y="0"
       x="0"
       xlink:href="#path3829"
       id="use3915" />
    <use
       transform="translate(-78.524168,0.13696678)"
       height="100%"
       width="100%"
       y="0"
       x="0"
       xlink:href="#path3829"
       id="use3917" />
    <use
       transform="translate(-83.185539,3.1002159)"
       height="100%"
       width="100%"
       y="0"
       x="0"
       xlink:href="#path3829"
       id="use3919" />
    <use
       transform="translate(-82.967646,-4.9197195)"
       height="100%"
       width="100%"
       y="0"
       x="0"
       xlink:href="#path3829"
       id="use3921" />
    <use
       transform="translate(-96.569078,5.730012)"
       height="100%"
       width="100%"
       y="0"
       x="0"
       xlink:href="#path3829"
       id="use3923" />
    <use
       transform="translate(-35.406423,3.5089603)"
       height="100%"
       width="100%"
       y="0"
       x="0"
       xlink:href="#path3829"
       id="use3925" />
    <use
       transform="translate(-25.574135,-12.769784)"
       height="100%"
       width="100%"
       y="0"
       x="0"
       xlink:href="#path3829"
       id="use3927" />
    <use
       transform="translate(-18.128436,-14.025821)"
       height="100%"
       width="100%"
       y="0"
       x="0"
       xlink:href="#path3829"
       id="use3929" />
    <use
       transform="translate(-24.792897,2.135177)"
       height="100%"
       width="100%"
       y="0"
       x="0"
       xlink:href="#path3829"
       id="use3931" />
    <use
       transform="translate(-20.269554,-12.922587)"
       height="100%"
       width="100%"
       y="0"
       x="0"
       xlink:href="#path3829"
       id="use3933" />
    <use
       transform="translate(-17.898943,-3.2675652)"
       height="100%"
       width="100%"
       y="0"
       x="0"
       xlink:href="#path3829"
       id="use3935" />
    <use
       transform="translate(-20.647166,-1.6757266)"
       height="100%"
       width="100%"
       y="0"
       x="0"
       xlink:href="#path3829"
       id="use3937" />
    <use
       transform="translate(-2.9234203,-2.3899434)"
       height="100%"
       width="100%"
       y="0"
       x="0"
       xlink:href="#path3829"
       id="use3939" />
    <use
       transform="translate(-0.87897247,-10.817975)"
       height="100%"
       width="100%"
       y="0"
       x="0"
       xlink:href="#path3829"
       id="use3941" />
    <use
       transform="translate(2.7212048,-4.112594)"
       height="100%"
       width="100%"
       y="0"
       x="0"
       xlink:href="#path3829"
       id="use3943" />
    <use
       transform="translate(10.935352,3.5030212)"
       height="100%"
       width="100%"
       y="0"
       x="0"
       xlink:href="#path3829"
       id="use3945" />
    <use
       transform="translate(8.9791401,-12.438269)"
       height="100%"
       width="100%"
       y="0"
       x="0"
       xlink:href="#path3829"
       id="use3947" />
    <use
       transform="translate(14.346094,-3.841846)"
       height="100%"
       width="100%"
       y="0"
       x="0"
       xlink:href="#path3829"
       id="use3949" />
    <use
       transform="translate(11.833628,-7.6994242)"
       height="100%"
       width="100%"
       y="0"
       x="0"
       xlink:href="#path3829"
       id="use3951" />
    <use
       transform="translate(11.103933,2.2641736)"
       height="100%"
       width="100%"
       y="0"
       x="0"
       xlink:href="#path3829"
       id="use3953" />
    <use
       transform="translate(13.593336,-8.2743031)"
       height="100%"
       width="100%"
       y="0"
       x="0"
       xlink:href="#path3829"
       id="use3955" />
    <use
       transform="translate(7.3718424,2.1095167)"
       height="100%"
       width="100%"
       y="0"
       x="0"
       xlink:href="#path3829"
       id="use3957" />
    <use
       transform="translate(12.190508,-0.22847586)"
       height="100%"
       width="100%"
       y="0"
       x="0"
       xlink:href="#path3829"
       id="use3959" />
    <use
       transform="translate(16.558596,-6.1414996)"
       height="100%"
       width="100%"
       y="0"
       x="0"
       xlink:href="#path3829"
       id="use3961" />
    <use
       transform="translate(-20.991862,-4.6016508)"
       height="100%"
       width="100%"
       y="0"
       x="0"
       xlink:href="#path3829"
       id="use3963" />
    <use
       transform="translate(-25.244667,5.0523241)"
       height="100%"
       width="100%"
       y="0"
       x="0"
       xlink:href="#path3829"
       id="use3965" />
    <use
       transform="translate(-12.104196,-2.6889285)"
       height="100%"
       width="100%"
       y="0"
       x="0"
       xlink:href="#path3829"
       id="use3967" />
  </g>
</svg>
